<?xml version="1.0" standalone="no"?>
<!DOCTYPE svg PUBLIC "-//W3C//DTD SVG 20010904//EN"
 "http://www.w3.org/TR/2001/REC-SVG-20010904/DTD/svg10.dtd">
<svg version="1.0" xmlns="http://www.w3.org/2000/svg"
 width="1024.000000pt" height="1024.000000pt" viewBox="0 0 1024.000000 1024.000000"
 preserveAspectRatio="xMidYMid meet">

<g transform="translate(0.000000,1024.000000) scale(0.100000,-0.100000)"
fill="#000000" stroke="none">
<path d="M4707 7784 c-257 -40 -505 -135 -731 -281 -232 -150 -461 -394 -576
-616 -64 -122 -66 -131 -39 -158 19 -19 28 -20 87 -14 99 11 106 15 133 87 38
103 118 167 209 168 17 0 21 3 12 9 -10 6 -7 16 14 42 55 68 97 108 108 102 6
-3 8 -3 4 2 -8 8 15 35 30 35 6 0 12 6 15 14 3 7 25 27 49 43 71 48 71 48 60
26 -10 -19 -31 -40 -42 -42 -45 -11 -50 -14 -39 -27 8 -10 35 -14 86 -14 56 0
75 -4 79 -15 5 -12 28 -15 120 -15 112 0 120 -2 115 -32 0 -5 4 -8 10 -8 6 0
9 7 5 15 -3 8 -2 14 2 13 4 -1 19 4 34 12 57 28 112 -4 120 -69 3 -23 4 -24
18 -6 9 11 10 16 3 11 -9 -5 -13 0 -13 13 0 12 4 21 9 21 5 0 11 10 13 23 2
15 9 21 21 19 13 -2 17 4 17 28 0 29 2 30 43 30 31 0 49 -6 62 -20 14 -16 31
-20 76 -20 37 0 59 -4 62 -12 3 -9 11 -5 26 11 26 30 26 35 2 28 -12 -3 -22 1
-25 10 -4 8 -2 11 5 7 8 -4 10 6 7 34 -2 22 0 38 4 36 3 -2 9 0 13 6 11 17 72
12 79 -7 6 -15 8 -15 17 -3 7 11 8 6 3 -15 -10 -51 -13 -55 -46 -70 -31 -14
-32 -15 -10 -21 22 -6 31 -24 12 -24 -5 0 -10 -4 -10 -10 0 -18 35 -11 50 10
11 15 26 20 62 20 26 0 48 -4 48 -10 0 -5 18 -10 40 -10 22 0 40 4 40 9 0 5
71 9 158 9 237 1 229 1 212 12 -12 8 -9 10 12 10 28 0 50 -21 30 -28 -15 -5
-16 -32 -2 -32 6 0 15 11 22 24 6 14 18 28 27 32 27 11 91 22 86 14 -2 -4 7
-18 20 -30 35 -33 35 -91 -1 -119 -15 -12 -35 -21 -46 -21 -11 0 -16 -5 -13
-10 8 -12 35 1 88 44 32 25 40 28 47 16 6 -8 10 -19 10 -25 0 -5 -5 -3 -10 5
-8 13 -10 12 -10 -2 0 -13 8 -18 26 -18 14 0 23 4 20 9 -3 4 4 17 16 27 15 14
22 16 25 7 5 -15 33 -17 33 -3 0 6 7 10 15 10 9 0 15 10 16 23 0 12 3 16 6 9
4 -10 8 -10 19 -1 12 10 20 7 39 -11 13 -13 22 -27 18 -33 -3 -6 -2 -7 4 -4
13 8 49 -31 152 -168 100 -132 136 -202 186 -360 21 -66 46 -129 57 -140 15
-16 32 -20 92 -20 65 0 78 3 100 24 19 18 26 34 26 64 0 100 -146 427 -264
592 -338 470 -889 748 -1473 744 -82 -1 -188 -7 -236 -15z m-487 -448 c0 -2
-9 -6 -20 -9 -11 -3 -18 -1 -14 4 5 9 34 13 34 5z m-100 -86 c0 -5 -2 -10 -4
-10 -3 0 -8 5 -11 10 -3 6 -1 10 4 10 6 0 11 -4 11 -10z m1771 -17 c13 -16 12
-17 -3 -4 -10 7 -18 15 -18 17 0 8 8 3 21 -13z m-830 -41 c-7 -2 -18 1 -23 6
-8 8 -4 9 13 5 13 -4 18 -8 10 -11z m-521 -2 c0 -5 -5 -10 -11 -10 -5 0 -7 5
-4 10 3 6 8 10 11 10 2 0 4 -4 4 -10z m1417 -16 c-3 -3 -12 -4 -19 -1 -8 3 -5
6 6 6 11 1 17 -2 13 -5z m-947 -8 c0 -3 -4 -8 -10 -11 -5 -3 -10 -1 -10 4 0 6
5 11 10 11 6 0 10 -2 10 -4z m-537 -13 c-7 -2 -19 -2 -25 0 -7 3 -2 5 12 5 14
0 19 -2 13 -5z m87 -6 c0 -4 -14 -5 -32 -2 -45 8 -47 14 -4 12 20 -1 36 -5 36
-10z m1414 2 c-2 -4 2 -10 8 -12 8 -4 7 -6 -3 -6 -9 -1 -19 5 -22 12 -3 8 1
14 9 14 7 0 11 -4 8 -8z m-1394 -39 c0 -5 -2 -10 -4 -10 -3 0 -8 5 -11 10 -3
6 -1 10 4 10 6 0 11 -4 11 -10z m1227 -22 c-3 -7 -5 -2 -5 12 0 14 2 19 5 13
2 -7 2 -19 0 -25z"/>
<path d="M5601 7105 c1 -19 18 -51 18 -35 0 8 -4 22 -9 30 -5 8 -9 11 -9 5z"/>
<path d="M6020 7090 c-13 -8 -12 -10 3 -10 9 0 17 5 17 10 0 12 -1 12 -20 0z"/>
<path d="M4401 7059 c-1 -14 6 -34 15 -45 8 -10 12 -13 8 -5 -4 8 -11 28 -15
45 -6 29 -7 29 -8 5z"/>
<path d="M5640 7019 c0 -5 5 -7 10 -4 6 3 10 8 10 11 0 2 -4 4 -10 4 -5 0 -10
-5 -10 -11z"/>
<path d="M5670 7010 c0 -5 5 -10 11 -10 5 0 7 5 4 10 -3 6 -8 10 -11 10 -2 0
-4 -4 -4 -10z"/>
<path d="M3830 6966 c0 -2 7 -7 16 -10 8 -3 12 -2 9 4 -6 10 -25 14 -25 6z"/>
<path d="M3971 6804 c0 -11 3 -14 6 -6 3 7 2 16 -1 19 -3 4 -6 -2 -5 -13z"/>
<path d="M3971 6744 c0 -11 3 -14 6 -6 3 7 2 16 -1 19 -3 4 -6 -2 -5 -13z"/>
<path d="M5658 6623 c45 -2 119 -2 165 0 45 1 8 3 -83 3 -91 0 -128 -2 -82 -3z"/>
<path d="M3302 6570 c-75 -46 -107 -199 -106 -515 0 -189 3 -234 22 -322 30
-136 73 -255 139 -385 104 -206 165 -277 563 -664 437 -425 947 -912 965 -921
11 -6 40 -14 65 -17 80 -10 112 11 317 214 104 102 326 321 496 488 259 255
307 307 307 331 0 23 -22 48 -122 142 -68 63 -200 187 -295 277 l-172 163
-202 -193 -201 -192 49 -45 c223 -207 233 -218 233 -249 0 -33 -22 -52 -60
-52 -14 0 -58 34 -119 93 -53 50 -166 157 -251 237 -85 80 -260 246 -388 369
l-233 223 -32 -29 c-18 -16 -90 -85 -161 -151 -71 -67 -134 -122 -140 -122 -6
0 -45 34 -86 75 -41 41 -79 75 -83 75 -5 0 -36 -25 -69 -55 -60 -56 -78 -65
-78 -42 0 6 -9 23 -20 37 -11 14 -19 32 -19 40 1 17 171 170 189 170 7 0 47
-34 90 -76 l79 -76 138 129 c76 72 144 137 152 147 25 30 52 17 154 -82 56
-53 138 -131 182 -172 45 -41 151 -142 238 -224 l157 -148 207 200 c115 109
225 214 246 232 l37 32 94 -91 93 -92 139 136 c76 75 158 152 181 172 l43 35
42 -37 c24 -21 92 -86 152 -143 l109 -106 -24 -44 c-13 -24 -27 -46 -31 -48
-4 -3 -62 47 -129 110 l-122 116 -70 -62 c-65 -58 -189 -189 -195 -207 -1 -4
46 -52 105 -107 59 -54 152 -141 205 -193 l98 -94 77 69 c239 214 384 469 455
800 19 91 23 138 23 289 0 163 -2 183 -21 215 -39 67 -145 75 -193 13 -19 -23
-21 -40 -21 -172 0 -157 -15 -272 -50 -391 -12 -41 -24 -78 -26 -81 -2 -3 -70
61 -151 143 -81 82 -160 156 -175 164 -32 17 -81 18 -111 3 -12 -6 -88 -76
-168 -156 l-145 -144 -56 61 c-65 70 -112 94 -166 84 -30 -6 -59 -29 -152
-124 -63 -64 -161 -161 -218 -215 l-103 -99 -307 306 c-283 282 -310 307 -349
313 -25 4 -50 2 -65 -5 -13 -7 -79 -68 -148 -136 l-125 -124 -55 55 c-105 107
-158 97 -305 -57 -53 -55 -98 -98 -101 -96 -10 11 -43 118 -58 191 -20 95 -40
377 -31 432 4 22 8 56 11 75 2 19 11 85 21 147 19 125 16 134 -44 160 -45 18
-83 16 -121 -7z"/>
<path d="M3279 3541 l-29 -29 0 -497 c0 -412 2 -502 15 -531 30 -73 134 -79
176 -10 18 29 19 56 19 530 l0 498 -34 34 c-46 46 -104 48 -147 5z"/>
<path d="M4563 3420 c-65 -39 -68 -52 -68 -275 0 -110 2 -305 5 -433 l5 -234
28 -24 c58 -50 146 -21 167 54 5 20 10 130 10 245 0 114 3 207 8 207 6 0 88
-135 218 -360 47 -81 78 -110 118 -110 51 0 88 31 136 115 111 192 209 350
219 353 8 3 11 -62 11 -220 0 -192 2 -228 18 -258 24 -48 63 -66 114 -51 74
23 75 26 83 425 8 395 4 480 -29 528 -43 64 -137 74 -190 21 -15 -15 -70 -104
-123 -197 -129 -230 -223 -386 -231 -386 -4 0 -29 39 -56 88 -140 248 -270
469 -284 486 -20 23 -73 46 -104 46 -13 0 -37 -9 -55 -20z"/>
<path d="M2395 3395 l-25 -24 0 -441 0 -441 25 -25 25 -25 238 3 c224 3 239 4
279 26 108 57 163 142 163 251 0 42 -7 80 -19 106 -20 44 -77 105 -98 105 -19
0 -16 10 10 30 13 10 36 42 52 72 70 127 10 284 -137 358 l-61 30 -214 0
c-214 0 -214 0 -238 -25z m415 -190 c35 -18 50 -43 50 -85 0 -77 -42 -100
-180 -100 l-100 0 0 100 0 100 100 0 c71 0 110 -5 130 -15z m25 -387 c55 -25
73 -111 31 -153 -30 -30 -68 -37 -186 -33 l-95 3 -3 98 -3 97 115 0 c68 0 126
-5 141 -12z"/>
<path d="M3663 3154 c-54 -27 -63 -61 -63 -246 0 -241 18 -313 96 -390 53 -54
117 -82 196 -86 74 -5 124 8 182 45 38 25 40 25 53 7 35 -49 43 -54 88 -54 35
0 52 6 70 25 l25 24 0 309 c0 292 -1 311 -20 334 -30 39 -73 53 -120 39 -63
-19 -70 -42 -70 -233 0 -90 -5 -180 -10 -200 -28 -99 -181 -127 -244 -45 -24
31 -25 38 -28 224 l-3 193 -30 29 c-38 37 -80 46 -122 25z"/>
<path d="M6345 3156 c-17 -7 -36 -25 -42 -39 l-12 -26 -62 32 c-53 27 -72 31
-138 32 -84 0 -143 -21 -211 -75 -48 -38 -102 -119 -125 -189 -68 -208 108
-456 325 -456 54 0 77 6 133 33 l67 33 34 -35 c29 -31 40 -36 78 -36 35 0 50
6 69 26 l24 26 3 301 c3 333 1 350 -54 373 -40 17 -50 17 -89 0z m-159 -237
c101 -62 98 -209 -6 -261 -71 -36 -146 -18 -196 48 -51 66 -31 166 42 215 40
26 116 25 160 -2z"/>
<path d="M6701 3156 c-51 -28 -50 -25 -51 -569 0 -541 2 -561 48 -586 26 -14
87 -14 113 -1 43 24 49 56 49 290 0 121 2 220 5 220 2 0 20 -11 40 -24 96 -66
209 -71 321 -16 149 73 230 245 191 405 -29 117 -99 204 -203 252 -101 46
-222 39 -305 -17 l-43 -29 -18 30 c-18 30 -71 59 -105 59 -10 -1 -29 -7 -42
-14z m437 -233 c71 -52 93 -142 51 -209 -68 -110 -226 -98 -288 23 -33 65 8
164 84 199 40 19 119 12 153 -13z"/>
<path d="M4742 2098 c-13 -13 -17 -183 -6 -212 5 -13 22 -16 81 -16 71 0 74 1
71 22 -3 18 -10 21 -53 22 l-50 1 -3 87 c-3 89 -16 120 -40 96z"/>
<path d="M5017 2063 c-38 -74 -70 -171 -64 -188 9 -22 26 -18 39 10 10 22 17
25 63 25 46 0 53 -3 63 -25 13 -28 24 -31 41 -11 15 18 -76 229 -101 234 -12
2 -25 -12 -41 -45z m61 -75 c11 -27 11 -28 -23 -28 l-35 0 17 35 c18 37 22 36
41 -7z"/>
<path d="M5242 2098 c-19 -19 -16 -212 3 -228 24 -20 39 2 45 65 l5 54 53 -65
c44 -54 56 -63 68 -53 12 9 14 34 12 118 -3 98 -4 106 -23 106 -17 0 -20 -8
-23 -57 -2 -32 -6 -58 -10 -58 -5 0 -24 22 -45 48 -53 70 -71 84 -85 70z"/>
<path d="M6082 2098 c-7 -7 -12 -37 -12 -67 l0 -56 -58 64 c-36 40 -63 62 -70
57 -15 -9 -17 -222 -2 -231 22 -13 39 17 42 73 l3 57 49 -63 c70 -89 80 -83
84 49 2 80 -1 109 -11 117 -10 9 -16 9 -25 0z"/>
<path d="M6274 2094 c-21 -8 -40 -14 -41 -14 -11 -1 -33 -68 -33 -101 0 -33 6
-47 34 -75 29 -29 41 -34 79 -34 66 0 99 29 95 84 l-3 41 -45 0 c-35 0 -45 -4
-48 -18 -3 -12 4 -20 17 -24 12 -3 21 -12 21 -19 0 -21 -64 -18 -83 4 -22 25
-21 75 1 95 21 19 77 23 87 6 5 -6 13 -2 22 11 28 39 -37 67 -103 44z"/>
<path d="M3455 2090 c-11 -18 15 -40 47 -40 l29 0 -2 -86 c-2 -91 8 -117 36
-94 11 9 15 33 15 96 l0 83 33 3 c24 2 32 8 32 23 0 18 -8 20 -92 23 -58 2
-94 -1 -98 -8z"/>
<path d="M3717 2093 c-11 -11 -8 -221 3 -228 16 -10 38 13 42 43 5 41 34 40
58 -1 21 -36 45 -52 61 -41 15 9 10 37 -12 60 l-21 22 21 21 c27 27 27 71 0
105 -18 23 -27 26 -83 26 -34 0 -66 -3 -69 -7z m117 -55 c16 -26 -4 -53 -40
-53 -25 0 -30 4 -32 29 -6 46 47 63 72 24z"/>
<path d="M3975 2088 c-3 -8 -4 -59 -3 -114 3 -91 5 -99 23 -99 19 0 20 7 20
110 0 97 -2 110 -18 113 -9 2 -19 -3 -22 -10z"/>
<path d="M4112 2088 c-14 -14 -17 -185 -3 -206 14 -23 46 -10 49 20 3 22 9 27
43 33 73 13 104 91 54 140 -19 20 -34 25 -78 25 -29 0 -58 -5 -65 -12z m102
-34 c9 -4 16 -18 16 -34 0 -28 -15 -40 -51 -40 -16 0 -19 7 -19 40 0 41 13 50
54 34z"/>
<path d="M4492 1983 c2 -97 6 -118 18 -118 8 0 19 15 25 33 7 24 15 32 33 32
30 0 78 25 86 45 3 9 6 32 6 50 0 50 -37 75 -112 75 l-59 0 3 -117z m99 67
c10 -6 19 -19 19 -29 0 -45 -72 -56 -78 -13 -7 48 16 64 59 42z"/>
<path d="M5510 1992 c0 -112 10 -143 37 -121 8 7 13 33 13 65 0 30 3 54 8 54
4 -1 27 -28 51 -60 42 -56 72 -73 86 -50 4 6 3 57 -1 115 -6 93 -9 105 -25
105 -17 0 -19 -8 -19 -62 l-1 -63 -58 63 c-84 90 -91 86 -91 -46z"/>
<path d="M5800 1985 c0 -108 1 -115 20 -115 19 0 20 7 20 115 0 108 -1 115
-20 115 -19 0 -20 -7 -20 -115z"/>
</g>
</svg>
